<?xml version="1.0" encoding="UTF-8" standalone="no"?>
<svg width="151px" height="720px" viewBox="0 0 151 720" version="1.1" xmlns="http://www.w3.org/2000/svg" xmlns:xlink="http://www.w3.org/1999/xlink" xmlns:sketch="http://www.bohemiancoding.com/sketch/ns">
    <!-- Generator: Sketch 3.3 (11970) - http://www.bohemiancoding.com/sketch -->
    <title>Group</title>
    <desc>Created with Sketch.</desc>
    <defs></defs>
    <g id="Page-1" stroke="none" stroke-width="1" fill="none" fill-rule="evenodd" sketch:type="MSPage">
        <g id="Group" sketch:type="MSLayerGroup" transform="translate(-1.000000, 0.000000)">
            <polygon id="Triangle-4" fill="#9AD9D4" sketch:type="MSShapeGroup" transform="translate(76.000000, 420.000000) rotate(-270.000000) translate(-76.000000, -420.000000) " points="56 345 226 495 55.8466797 475 -74 495 "></polygon>
            <polygon id="Triangle-4-Copy-6" fill="#77C6BF" sketch:type="MSShapeGroup" transform="translate(76.000000, 335.000000) rotate(-270.000000) translate(-76.000000, -335.000000) " points="141 260 141 390 11 410 "></polygon>
            <polygon id="Triangle-4-Copy-5" fill="#77BBB5" sketch:type="MSShapeGroup" points="151 399 151 560 1 570 "></polygon>
            <polygon id="Triangle-4-Copy-4" fill="#59A49E" sketch:type="MSShapeGroup" transform="translate(76.000000, 640.000000) scale(-1, -1) rotate(-270.000000) translate(-76.000000, -640.000000) " points="146 565 156 715 -4 715 "></polygon>
            <path d="M151,0.421875 L151,280.421875 L1,270.421875 L151,0.421875 Z" id="Triangle-4-Copy-2" fill="#92D7D0" sketch:type="MSShapeGroup"></path>
            <path d="M151.078125,280.421875 L151.078125,400.421875 L1.078125,270.421875 L151.078125,280.421875 Z" id="Triangle-4-Copy" fill="#81CEC8" sketch:type="MSShapeGroup"></path>
        </g>
    </g>
</svg>