<?xml version="1.0" standalone="no"?><!-- Generator: Adobe Fireworks CS5, Export SVG Extension by Aaron Beall (http://fireworks.abeall.com) . Version: 0.6.1  --><!DOCTYPE svg PUBLIC "-//W3C//DTD SVG 1.1//EN" "http://www.w3.org/Graphics/SVG/1.1/DTD/svg11.dtd"><svg id="Untitled-Page%201" viewBox="0 0 40 40" style="background-color:#ffffff00" version="1.1"	xmlns="http://www.w3.org/2000/svg" xmlns:xlink="http://www.w3.org/1999/xlink" xml:space="preserve"	x="0px" y="0px" width="40px" height="40px">	<path d="M 26.4488 22.7067 C 27.1175 23.0192 27.9325 23.1754 28.8727 23.1754 C 29.6772 23.1754 30.3667 23.0712 30.9311 22.8421 C 31.4951 22.6234 31.9445 22.2902 32.2894 21.8424 C 32.6342 21.3946 32.8847 20.8322 33.0415 20.1657 C 33.1982 19.4992 33.2817 18.7077 33.2817 17.8017 C 33.2817 15.8646 32.864 14.4274 32.028 13.4902 C 31.1923 12.5529 29.9384 12.0843 28.2666 12.0843 C 27.6083 12.0843 26.992 12.178 26.4279 12.3446 C 25.8637 12.5113 25.3621 12.7924 24.9442 13.1882 C 24.5159 13.5839 24.1815 14.115 23.9413 14.7711 C 23.7008 15.4272 23.586 16.25 23.586 17.2393 C 23.586 18.0516 23.68 18.8118 23.8785 19.5304 C 24.0665 20.2594 24.3801 20.8842 24.8084 21.4258 C 25.2263 21.9674 25.7801 22.3943 26.4488 22.7067 ZM 3.9534 29.9446 C 4.7266 30.3195 5.51 30.4966 6.325 30.4966 C 6.743 30.4966 7.1296 30.4757 7.4848 30.4341 C 7.84 30.3924 8.1848 30.3299 8.4982 30.2466 C 9.1356 30.0904 9.6893 29.8821 10.149 29.6218 C 10.6087 29.3614 10.9849 29.0802 11.2879 28.7783 L 11.2879 13.8443 C 11.1417 13.6776 10.964 13.5006 10.755 13.3131 C 10.5461 13.1361 10.2745 12.9695 9.9401 12.8133 C 9.6058 12.657 9.1983 12.5321 8.7386 12.4279 C 8.2789 12.3342 7.7355 12.2821 7.1087 12.2821 C 6.6072 12.2821 6.0952 12.3446 5.5623 12.4696 C 5.0191 12.5946 4.4966 12.7924 3.9742 13.084 C 3.4518 13.3756 2.9503 13.7401 2.4801 14.1984 C 2.01 14.6566 1.592 15.2086 1.2263 15.8646 C 0.8606 16.5207 0.5681 17.2914 0.3487 18.1662 C 0.1294 19.0514 0.0144 20.0616 0.0039 21.1862 C -0.0274 22.7901 0.1294 24.1752 0.4845 25.3415 C 0.8398 26.5184 1.3099 27.4869 1.9055 28.2471 C 2.501 29.0073 3.1802 29.5697 3.9534 29.9446 ZM 11.2901 1.7846 C 6.6211 3.8782 2.896 7.6658 0.9261 12.3462 C 1.6028 11.8487 2.3397 11.4283 3.1384 11.0845 C 4.5176 10.4909 5.9907 10.1889 7.5789 10.1889 C 8.2684 10.1889 8.9476 10.2409 9.5953 10.3242 C 10.2432 10.418 10.8073 10.543 11.2879 10.6992 L 11.2901 1.7846 ZM 36.9072 30.6154 C 38.8674 27.5394 40 23.901 40 20 C 40 17.7364 39.6214 15.5596 38.9222 13.5308 L 36.1655 13.5318 C 36.437 14.0317 36.646 14.5837 36.7924 15.2086 C 36.9387 15.8334 37.0224 16.5207 37.0224 17.2601 C 37.0224 18.5515 36.782 19.6867 36.3013 20.6864 C 35.8208 21.6861 35.1835 22.5193 34.3892 23.1962 C 33.5849 23.8731 32.655 24.3834 31.6103 24.7375 C 30.5551 25.0916 29.4579 25.2687 28.3085 25.2687 C 26.7622 25.2687 25.3831 25.0291 24.171 24.5396 C 24.0875 24.7479 24.0353 24.977 24.004 25.2166 C 23.9725 25.4665 23.9517 25.6956 23.9517 25.9247 C 23.9413 26.1538 23.9413 26.3621 23.9517 26.56 L 23.9621 27.0598 C 23.9621 27.7681 24.1397 28.3096 24.5159 28.7054 C 24.8816 29.1011 25.5293 29.3302 26.4697 29.4031 C 27.0547 29.4655 27.7548 29.4968 28.58 29.4968 L 31.5161 29.4968 C 32.7282 29.4968 33.7729 29.601 34.6296 29.7884 C 35.4863 29.9758 36.2073 30.2258 36.7715 30.5382 L 36.9072 30.6154 ZM 24.5516 39.4231 C 28.5585 38.4548 32.0987 36.3132 34.7751 33.3923 C 34.4064 33.1785 33.9498 33.012 33.4072 32.8918 C 32.655 32.7044 31.6728 32.621 30.4609 32.621 L 27.995 32.5898 C 27.2219 32.5898 26.5323 32.569 25.9264 32.5273 C 25.3203 32.4857 24.7667 32.4128 24.2859 32.3295 C 24.1294 32.5169 23.983 32.7148 23.8472 32.9543 C 23.7114 33.173 23.586 33.4334 23.4815 33.7354 C 23.3667 34.0165 23.2726 34.3498 23.2098 34.7247 C 23.1472 35.0892 23.1158 35.5162 23.1158 36.0057 C 23.1158 36.8805 23.283 37.6303 23.6173 38.2551 C 23.8621 38.705 24.1765 39.0919 24.5516 39.4231 ZM 19.6938 40 L 20.2483 39.9923 C 19.7258 39.2534 19.4694 38.3382 19.4694 37.2554 C 19.4694 36.6513 19.5738 36.0786 19.7933 35.5371 C 20.0022 34.9851 20.2739 34.4852 20.6083 34.0374 C 20.9322 33.5688 21.2873 33.1626 21.6739 32.819 C 22.05 32.4648 22.4263 32.1732 22.7815 31.9442 C 22.1963 31.7359 21.7472 31.4963 21.4441 31.2255 C 21.1411 30.9548 20.9322 30.6632 20.8067 30.3611 C 20.6814 30.0696 20.6187 29.7572 20.6083 29.4447 C 20.5874 29.1323 20.5874 28.8408 20.5874 28.5595 C 20.5874 28.3304 20.6396 28.0284 20.7441 27.6535 C 20.8485 27.2786 20.9948 26.8725 21.2038 26.435 C 21.4023 26.0081 21.6531 25.5707 21.9665 25.1332 C 22.2695 24.6959 22.6247 24.2897 23.0217 23.9356 C 22.0397 23.3524 21.2561 22.5714 20.6919 21.5925 C 20.1277 20.6135 19.8455 19.4054 19.8455 17.9787 C 19.8455 16.6456 20.0963 15.4793 20.6187 14.4899 C 21.1306 13.5006 21.8098 12.6779 22.6562 12.0322 C 23.4919 11.3865 24.4531 10.8971 25.519 10.5638 C 26.5846 10.2409 27.6713 10.0639 28.7787 10.0327 C 29.8862 10.0118 30.9206 10.1264 31.9028 10.3763 C 32.8744 10.6263 33.731 11.0324 34.4731 11.5948 C 34.7343 11.3032 35.1206 11.0533 35.6223 10.8658 C 36.1237 10.6783 36.7924 10.5846 37.6284 10.5846 C 34.2096 4.2856 27.4526 0 19.6938 0 C 18.0954 0 16.5382 0.1802 15.0468 0.5231 L 15.0493 31.0485 L 17.6926 31.0485 L 17.6926 32.5065 C 17.4628 32.6315 17.1911 32.7356 16.8568 32.8398 C 16.5224 32.9439 16.1672 33.0272 15.7911 33.1209 C 15.4149 33.1939 15.0388 33.2459 14.6627 33.298 C 14.2761 33.3292 13.9104 33.3501 13.576 33.3501 C 13.3358 33.3501 13.085 33.3292 12.8342 33.298 C 12.5835 33.2564 12.3536 33.173 12.1446 33.0584 C 11.9357 32.9231 11.7581 32.7148 11.6223 32.4545 C 11.4864 32.1837 11.4237 31.7983 11.4237 31.3193 L 11.4237 30.8298 C 11.2253 31.059 10.9327 31.3089 10.5566 31.5796 C 10.1805 31.8504 9.7103 32.1107 9.146 32.3399 C 8.5818 32.569 7.9445 32.7564 7.2236 32.9335 C 6.4922 33.0897 5.6982 33.173 4.8206 33.173 L 4.4016 33.1615 C 8.1238 37.3522 13.5964 40 19.6938 40 Z" fill="#191919"/></svg>