<?xml version="1.0" encoding="UTF-8" standalone="no"?>
<svg width="50px" height="51px" viewBox="0 0 50 51" version="1.1" xmlns="http://www.w3.org/2000/svg" xmlns:xlink="http://www.w3.org/1999/xlink" xmlns:sketch="http://www.bohemiancoding.com/sketch/ns">
    <!-- Generator: Sketch 3.3 (11970) - http://www.bohemiancoding.com/sketch -->
    <title>Fill 1</title>
    <desc>Created with Sketch.</desc>
    <defs></defs>
    <g id="Page-1" stroke="none" stroke-width="1" fill="none" fill-rule="evenodd" sketch:type="MSPage">
        <path d="M4.94067318,38.1793207 C5.90780442,38.6574457 6.88726452,38.8833424 7.90645098,38.8833424 C8.42837308,38.8833424 8.9119387,38.8570109 9.35577796,38.802962 C9.79961723,38.7502989 10.2311276,38.6713043 10.6229117,38.5645924 C11.4188086,38.3650272 12.1105951,38.1003261 12.6859423,37.7677174 C13.2599196,37.4364946 13.7311564,37.0775543 14.1092417,36.6922826 L14.1092417,17.6518207 C13.9270484,17.4383967 13.7051288,17.2138859 13.4434828,16.9741304 C13.1818368,16.7482337 12.842108,16.5361957 12.4242963,16.3366304 C12.0064847,16.1370652 11.4968914,15.9790761 10.9229141,15.8460326 C10.3475669,15.725462 9.66947917,15.6603261 8.88591109,15.6603261 C8.25850867,15.6603261 7.61877738,15.7393207 6.95301849,15.8986957 C6.27356085,16.0580707 5.62013082,16.3102989 4.96670079,16.681712 C4.31464064,17.0545109 3.68723822,17.5187772 3.09956216,18.1036141 C2.51188609,18.6870652 1.989964,19.391087 1.53242599,20.2267663 C1.07488798,21.0638315 0.70913155,22.046413 0.435156696,23.162038 C0.161181841,24.2901359 0.0173450423,25.5789946 0.00501617381,27.0119837 C-0.0347101801,29.0575272 0.161181841,30.823125 0.605021105,32.310163 C1.04886037,33.8110598 1.63653643,35.0458696 2.38174804,36.0145924 C3.12558977,36.9847011 3.97491182,37.7011957 4.94067318,38.1793207 L4.94067318,38.1793207 Z M14.1092417,2.27975543 C8.27357729,4.95032609 3.62148425,9.77453804 1.15845031,15.7420924 C2.00503261,15.1073641 2.92421825,14.5710326 3.92285659,14.1330978 C5.64615843,13.376413 7.48863933,12.9911413 9.47358715,12.9911413 C10.3352381,12.9911413 11.1845601,13.057663 11.9941558,13.1629891 C12.8037515,13.2835598 13.5092368,13.4429348 14.1092417,13.6411141 L14.1092417,2.27975543 Z M44.5272999,13.854538 C45.1505927,13.6161685 45.9807365,13.4969837 47.0163615,13.4955978 C42.7437236,5.4644837 34.3148872,0 24.6175472,0 C22.6189007,0 20.6750491,0.231440217 18.8106502,0.669375 L18.8106502,39.5873641 L22.1161568,39.5873641 L22.1161568,41.4458152 C21.8284832,41.6051902 21.4887544,41.7382337 21.0709427,41.8712772 C20.6531311,42.0029348 20.2092918,42.1096467 19.7380551,42.2288315 C19.2681882,42.3216848 18.7983213,42.3882065 18.3284544,42.4547283 C17.8448888,42.4949185 17.3873508,42.52125 16.9695392,42.52125 C16.6695367,42.52125 16.3558355,42.4949185 16.0421343,42.4547283 C15.7284331,42.4020652 15.4421294,42.2953533 15.1804834,42.149837 C14.9188374,41.9766033 14.6969178,41.7119022 14.5270533,41.3792935 C14.3571889,41.034212 14.2791061,40.5422283 14.2791061,39.9324457 L14.2791061,39.3074185 C14.0311589,39.599837 13.6654024,39.918587 13.1955355,40.2636685 C12.7256687,40.60875 12.1379926,40.9413587 11.4325074,41.2337772 C10.7270221,41.5248098 9.92975528,41.7645652 9.02837801,41.990462 C8.11467187,42.1900272 7.1228829,42.2953533 6.0256136,42.2953533 C5.85163957,42.2953533 5.67766554,42.2911957 5.50506138,42.2828804 C10.1585243,47.6254076 16.9955668,51 24.6175472,51 C24.849056,51 25.0805647,50.9972283 25.3107036,50.9902989 C24.6572736,50.0492935 24.336723,48.8810054 24.336723,47.5006793 C24.336723,46.7301359 24.4668611,45.9997826 24.7408359,45.3096196 C25.0024819,44.6055978 25.3422107,43.9680978 25.7600224,43.3971196 C26.1655052,42.7998098 26.6093444,42.2828804 27.0915402,41.8435598 C27.5627769,41.3931522 28.0326438,41.0203533 28.4764831,40.7293207 C27.7449702,40.4632337 27.1833217,40.1583424 26.8052364,39.811875 C26.4257813,39.4667935 26.1655052,39.0953804 26.0079696,38.7101087 C25.851804,38.3386957 25.7737211,37.9409511 25.7600224,37.5418207 C25.7339948,37.1440761 25.7339948,36.7712772 25.7339948,36.4137228 C25.7339948,36.1213043 25.7997487,35.7360326 25.9298868,35.2579076 C26.0600248,34.7797826 26.243588,34.2628533 26.5038641,33.7043478 C26.7531812,33.1597011 27.0655126,32.6025815 27.4572966,32.045462 C27.8367518,31.4869565 28.280591,30.9700272 28.7764855,30.5182337 C27.5490782,29.7740217 26.5696181,28.7789674 25.8641328,27.5302989 C25.1586476,26.2816304 24.8065899,24.7419293 24.8065899,22.9222826 C24.8065899,21.2232065 25.1202911,19.7361685 25.7737211,18.4750272 C26.4134524,17.2138859 27.2614046,16.1647826 28.3203174,15.3415761 C29.3641616,14.5183696 30.5655413,13.8933424 31.898429,13.4692663 C33.2299468,13.057663 34.5888621,12.8317663 35.973805,12.7915761 C37.357378,12.7652446 38.6505393,12.9107609 39.8779466,13.2295109 C41.0930251,13.5482609 42.1628969,14.0665761 43.0916717,14.7830707 C43.4177018,14.4116576 43.9012674,14.0929076 44.5272999,13.854538 L44.5272999,13.854538 Z M49.9999476,25.5 C49.9999476,22.6132337 49.5218615,19.8401087 48.6424022,17.2526902 L45.2067576,17.2526902 C45.5464864,17.8901902 45.8067625,18.594212 45.9903256,19.391087 C46.1738888,20.187962 46.2779992,21.0638315 46.2779992,22.0062228 C46.2779992,23.6526359 45.9779968,25.1008696 45.376622,26.3744837 C44.7752472,27.6494837 43.9793502,28.7124457 42.9861914,29.5758424 C41.9807036,30.4378533 40.8190503,31.089212 39.5121902,31.5410054 C38.1930013,31.991413 36.8217571,32.2173098 35.3861289,32.2173098 C33.4532363,32.2173098 31.7285646,31.9124185 30.2134836,31.2873913 C30.1093732,31.5534783 30.0436192,31.8458967 30.0052628,32.150788 C29.9655364,32.469538 29.9395088,32.7619565 29.9395088,33.054375 C29.92581,33.3467935 29.92581,33.6114946 29.9395088,33.8637228 C29.9395088,34.1298098 29.9518377,34.3418478 29.9518377,34.5012228 C29.9518377,35.4048098 30.1737573,36.0949728 30.644994,36.5994293 C31.1011622,37.1038859 31.9107579,37.3963043 33.0874799,37.4891576 C33.8176229,37.5681522 34.6929725,37.6083424 35.7244878,37.6083424 L39.394381,37.6083424 C40.909462,37.6083424 42.216322,37.7413859 43.2875637,37.9797554 C44.3574355,38.2195109 45.2588128,38.5382609 45.964298,38.9360054 L46.1327926,39.0344022 C48.5834976,35.1123913 49.9999476,30.4725 49.9999476,25.5 L49.9999476,25.5 Z M33.0600824,28.9508152 C33.8970756,29.3499457 34.9148921,29.548125 36.0902443,29.548125 C37.095732,29.548125 37.9587528,29.4164674 38.664238,29.1240489 C39.3683534,28.8454891 39.9300019,28.4200272 40.3615123,27.8490489 C40.7930227,27.2780707 41.105354,26.5615761 41.301246,25.7106522 C41.497138,24.8611141 41.6026183,23.8522011 41.6026183,22.6977717 C41.6026183,20.2267663 41.0793264,18.3946467 40.0354822,17.2000272 C38.9902681,16.0054076 37.4231319,15.4080978 35.3327038,15.4080978 C34.5107792,15.4080978 33.73954,15.5272826 33.0340548,15.7393207 C32.3299394,15.9513587 31.702537,16.3102989 31.1806149,16.8147554 C30.644994,17.319212 30.2271824,17.9969022 29.92581,18.8325815 C29.6258076,19.6696467 29.4819708,20.71875 29.4819708,21.9798913 C29.4819708,23.0151359 29.59978,23.9852446 29.8477272,24.9013043 C30.0833456,25.8312228 30.4751296,26.626712 31.0107505,27.3182609 C31.5326726,28.0084239 32.2244591,28.5530707 33.0600824,28.9508152 L33.0600824,28.9508152 Z M30.6860903,50.266875 C35.6957205,49.0320652 40.1204144,46.303288 43.4670172,42.5780707 C43.0067395,42.3050543 42.4368718,42.0902446 41.758784,41.936413 C40.8190503,41.6980435 39.590273,41.5913315 38.076562,41.5913315 L34.992975,41.5525272 C34.0272136,41.5525272 33.1655627,41.5248098 32.4080222,41.4721467 C31.6504818,41.4194837 30.9586952,41.3266304 30.3573204,41.2199185 C30.1614284,41.4596739 29.9792351,41.7119022 29.8093707,42.0167935 C29.6395063,42.2953533 29.4819708,42.627962 29.3518327,43.0132337 C29.2079959,43.370788 29.0901867,43.79625 29.0121039,44.274375 C28.9340211,44.7386413 28.8942947,45.283288 28.8942947,45.9069293 C28.8942947,47.0225543 29.1038855,47.9788043 29.5216971,48.7756793 C29.8271791,49.3494293 30.2175933,49.8441848 30.6860903,50.266875 L30.6860903,50.266875 Z" id="Fill-1" fill="#8AC6D9" sketch:type="MSShapeGroup"></path>
    </g>
</svg>