<?xml version="1.0" encoding="UTF-8" standalone="no"?>
<svg width="50px" height="51px" viewBox="0 0 50 51" version="1.1" xmlns="http://www.w3.org/2000/svg" xmlns:xlink="http://www.w3.org/1999/xlink" xmlns:sketch="http://www.bohemiancoding.com/sketch/ns">
    <!-- Generator: Sketch 3.3 (11970) - http://www.bohemiancoding.com/sketch -->
    <title>Imported Layers Copy</title>
    <desc>Created with Sketch.</desc>
    <defs>
        <path id="path-1" d="M0,0 L50,0 L50,51 L0,51 L0,0 Z"></path>
    </defs>
    <g id="Page-1" stroke="none" stroke-width="1" fill="none" fill-rule="evenodd" sketch:type="MSPage">
        <g id="Imported-Layers-Copy" sketch:type="MSLayerGroup">
            <mask id="mask-2" sketch:name="Clip 2" fill="white">
                <use xlink:href="#path-1"></use>
            </mask>
            <g id="Clip-2"></g>
            <path d="M4.94064335,38.1793484 C5.90777458,38.6574734 6.88723469,38.8833701 7.90642115,38.8833701 C8.42834325,38.8833701 8.91190887,38.8570386 9.35574813,38.8029897 C9.79958739,38.7503266 10.2310978,38.6713321 10.6228818,38.5646201 C11.4187788,38.3650549 12.1105653,38.1003538 12.6859125,37.7677451 C13.2598898,37.4365223 13.7311266,37.0775821 14.1092119,36.6923103 L14.1092119,17.6518484 C13.9270186,17.4384245 13.7050989,17.2139136 13.443453,16.9741582 C13.181807,16.7482614 12.8420782,16.5362234 12.4242665,16.3366582 C12.0064548,16.1370929 11.4968616,15.9791038 10.9228843,15.8460603 C10.3475371,15.7254897 9.66944934,15.6603538 8.88588125,15.6603538 C8.25847884,15.6603538 7.61874755,15.7393484 6.95298865,15.8987234 C6.27353102,16.0580984 5.62010099,16.3103266 4.96667096,16.6817397 C4.31461081,17.0545386 3.68720839,17.5188049 3.09953232,18.1036418 C2.51185626,18.6870929 1.98993416,19.3911147 1.53239616,20.226794 C1.07485815,21.0638592 0.709101719,22.0464408 0.435126864,23.1620658 C0.161152009,24.2901636 0.0173152108,25.5790223 0.00498634235,27.0120114 C-0.0347400116,29.0575549 0.161152009,30.8231527 0.604991274,32.3101908 C1.04883054,33.8110875 1.6365066,35.0458973 2.38171821,36.0146201 C3.12555994,36.9847288 3.97488199,37.7012234 4.94064335,38.1793484 L4.94064335,38.1793484 Z M14.1092119,2.27978315 C8.27354745,4.9503538 3.62145442,9.77456576 1.15842048,15.7421201 C2.00500278,15.1073918 2.92418842,14.5710603 3.92282676,14.1331255 C5.6461286,13.3764408 7.4886095,12.991169 9.47355732,12.991169 C10.3352082,12.991169 11.1845303,13.0576908 11.994126,13.1630168 C12.8037217,13.2835875 13.5092069,13.4429625 14.1092119,13.6411418 L14.1092119,2.27978315 Z M44.5272701,13.8545658 C45.1505629,13.6161962 45.9807067,13.4970114 47.0163316,13.4956255 C42.7436938,5.46451141 34.3148574,2.77173913e-05 24.6175174,2.77173913e-05 C22.6188708,2.77173913e-05 20.6750192,0.231467935 18.8106204,0.669402717 L18.8106204,39.5873918 L22.116127,39.5873918 L22.116127,41.4458429 C21.8284534,41.6052179 21.4887246,41.7382614 21.0709129,41.8713049 C20.6531013,42.0029625 20.209262,42.1096745 19.7380252,42.2288592 C19.2681584,42.3217125 18.7982915,42.3882342 18.3284246,42.454756 C17.844859,42.4949462 17.387321,42.5212777 16.9695093,42.5212777 C16.6695069,42.5212777 16.3558057,42.4949462 16.0421045,42.454756 C15.7284032,42.4020929 15.4420995,42.295381 15.1804535,42.1498647 C14.9188076,41.976631 14.6968879,41.7119299 14.5270235,41.3793212 C14.3571591,41.0342397 14.2790763,40.542256 14.2790763,39.9324734 L14.2790763,39.3074462 C14.031129,39.5998647 13.6653726,39.9186147 13.1955057,40.2636962 C12.7256388,40.6087777 12.1379628,40.9413864 11.4324775,41.2338049 C10.7269923,41.5248375 9.92972545,41.7645929 9.02834818,41.9904897 C8.11464204,42.1900549 7.12285306,42.295381 6.02558377,42.295381 C5.85160974,42.295381 5.67763571,42.2912234 5.50503155,42.2829082 C10.1584945,47.6254353 16.9955369,51.0000277 24.6175174,51.0000277 C24.8490262,51.0000277 25.0805349,50.997256 25.3106738,50.9903266 C24.6572438,50.0493212 24.3366932,48.8810332 24.3366932,47.5007071 C24.3366932,46.7301636 24.4668312,45.9998103 24.7408061,45.3096473 C25.0024521,44.6056255 25.3421809,43.9681255 25.7599925,43.3971473 C26.1654753,42.7998375 26.6093146,42.2829082 27.0915103,41.8435875 C27.5627471,41.3931799 28.032614,41.020381 28.4764532,40.7293484 C27.7449404,40.4632614 27.1832919,40.1583701 26.8052066,39.8119027 C26.4257514,39.4668212 26.1654753,39.0954082 26.0079398,38.7101364 C25.8517741,38.3387234 25.7736913,37.9409788 25.7599925,37.5418484 C25.7339649,37.1441038 25.7339649,36.7713049 25.7339649,36.4137505 C25.7339649,36.1213321 25.7997189,35.7360603 25.929857,35.2579353 C26.059995,34.7798103 26.2435582,34.262881 26.5038343,33.7043755 C26.7531514,33.1597288 27.0654827,32.6026092 27.4572668,32.0454897 C27.8367219,31.4869842 28.2805612,30.9700549 28.7764557,30.5182614 C27.5490483,29.7740495 26.5695882,28.7789951 25.864103,27.5303266 C25.1586177,26.2816582 24.8065601,24.7419571 24.8065601,22.9223103 C24.8065601,21.2232342 25.1202613,19.7361962 25.7736913,18.4750549 C26.4134226,17.2139136 27.2613748,16.1648103 28.3202876,15.3416038 C29.3641318,14.5183973 30.5655115,13.8933701 31.8983992,13.469294 C33.229917,13.0576908 34.5888322,12.831794 35.9737751,12.7916038 C37.3573481,12.7652723 38.6505095,12.9107886 39.8779168,13.2295386 C41.0929953,13.5482886 42.1628671,14.0666038 43.0916418,14.7830984 C43.4176719,14.4116853 43.9012375,14.0929353 44.5272701,13.8545658 L44.5272701,13.8545658 Z M49.9999178,25.5000277 C49.9999178,22.6132614 49.5218317,19.8401364 48.6423724,17.2527179 L45.2067277,17.2527179 C45.5464565,17.8902179 45.8067327,18.5942397 45.9902958,19.3911147 C46.173859,20.1879897 46.2779694,21.0638592 46.2779694,22.0062505 C46.2779694,23.6526636 45.9779669,25.1008973 45.3765921,26.3745114 C44.7752173,27.6495114 43.9793204,28.7124734 42.9861615,29.5758701 C41.9806738,30.437881 40.8190204,31.0892397 39.5121604,31.5410332 C38.1929714,31.9914408 36.8217273,32.2173375 35.3860991,32.2173375 C33.4532065,32.2173375 31.7285348,31.9124462 30.2134538,31.287419 C30.1093434,31.553506 30.0435894,31.8459245 30.0052329,32.1508158 C29.9655066,32.4695658 29.939479,32.7619842 29.939479,33.0544027 C29.9257802,33.3468212 29.9257802,33.6115223 29.939479,33.8637505 C29.939479,34.1298375 29.9518078,34.3418755 29.9518078,34.5012505 C29.9518078,35.4048375 30.1737275,36.0950005 30.6449642,36.5994571 C31.1011323,37.1039136 31.910728,37.3963321 33.08745,37.4891853 C33.817593,37.5681799 34.6929427,37.6083701 35.724458,37.6083701 L39.3943512,37.6083701 C40.9094321,37.6083701 42.2162922,37.7414136 43.2875339,37.9797832 C44.3574057,38.2195386 45.2587829,38.5382886 45.9642682,38.9360332 L46.1327627,39.0344299 C48.5834678,35.112419 49.9999178,30.4725277 49.9999178,25.5000277 L49.9999178,25.5000277 Z M33.0600525,28.9508429 C33.8970457,29.3499734 34.9148623,29.5481527 36.0902144,29.5481527 C37.0957022,29.5481527 37.9587229,29.4164951 38.6642082,29.1240766 C39.3683236,28.8455168 39.929972,28.4200549 40.3614824,27.8490766 C40.7929928,27.2780984 41.1053242,26.5616038 41.3012162,25.7106799 C41.4971082,24.8611418 41.6025885,23.8522288 41.6025885,22.6977995 C41.6025885,20.226794 41.0792965,18.3946745 40.0354523,17.2000549 C38.9902383,16.0054353 37.4231021,15.4081255 35.332674,15.4081255 C34.5107494,15.4081255 33.7395102,15.5273103 33.0340249,15.7393484 C32.3299096,15.9513864 31.7025071,16.3103266 31.180585,16.8147832 C30.6449642,17.3192397 30.2271526,17.9969299 29.9257802,18.8326092 C29.6257777,19.6696745 29.4819409,20.7187777 29.4819409,21.979919 C29.4819409,23.0151636 29.5997501,23.9852723 29.8476974,24.9013321 C30.0833158,25.8312505 30.4750998,26.6267397 31.0107206,27.3182886 C31.5326427,28.0084516 32.2244292,28.5530984 33.0600525,28.9508429 L33.0600525,28.9508429 Z M30.6860604,50.2669027 C35.6956906,49.0320929 40.1203846,46.3033158 43.4669874,42.5780984 C43.0067096,42.3050821 42.4368419,42.0902723 41.7587542,41.9364408 C40.8190204,41.6980712 39.5902432,41.5913592 38.0765321,41.5913592 L34.9929451,41.5525549 C34.0271838,41.5525549 33.1655329,41.5248375 32.4079924,41.4721745 C31.6504519,41.4195114 30.9586654,41.3266582 30.3572906,41.2199462 C30.1613986,41.4597016 29.9792053,41.7119299 29.8093409,42.0168212 C29.6394765,42.295381 29.4819409,42.6279897 29.3518029,43.0132614 C29.2079661,43.3708158 29.0901569,43.7962777 29.0120741,44.2744027 C28.9339912,44.738669 28.8942649,45.2833158 28.8942649,45.9069571 C28.8942649,47.0225821 29.1038556,47.9788321 29.5216673,48.7757071 C29.8271493,49.3494571 30.2175634,49.8442125 30.6860604,50.2669027 L30.6860604,50.2669027 Z" id="Fill-1" fill="#FFFFFF" sketch:type="MSShapeGroup" mask="url(#mask-2)"></path>
        </g>
    </g>
</svg>