<?xml version="1.0" encoding="UTF-8" standalone="no"?>
<svg width="238px" height="51px" viewBox="0 0 238 51" version="1.1" xmlns="http://www.w3.org/2000/svg" xmlns:xlink="http://www.w3.org/1999/xlink" xmlns:sketch="http://www.bohemiancoding.com/sketch/ns">
    <!-- Generator: Sketch 3.3 (11970) - http://www.bohemiancoding.com/sketch -->
    <title>Group Copy 4</title>
    <desc>Created with Sketch.</desc>
    <defs></defs>
    <g id="Page-1" stroke="none" stroke-width="1" fill="none" fill-rule="evenodd" sketch:type="MSPage">
        <g id="Group-Copy-4" sketch:type="MSLayerGroup" transform="translate(119.000000, 25.421053) scale(-1, 1) rotate(-90.000000) translate(-119.000000, -25.421053) translate(94.000000, -93.000000)">
            <path d="M49.6710526,131.578947 L0.328947368,187.5 L6.90789474,131.528513 L0.328947368,88.8157895 L49.6710526,131.578947 L49.6710526,131.578947 Z" id="Triangle-4" fill="#AFAFAF" sketch:type="MSShapeGroup"></path>
            <path d="M49.6710526,131.578947 L6.90789474,131.578947 L0.328947368,88.8157895 L49.6710526,131.578947 L49.6710526,131.578947 Z" id="Triangle-4-Copy-6" fill="#888888" sketch:type="MSShapeGroup"></path>
            <polygon id="Triangle-4-Copy-5" fill="#4E4E4E" sketch:type="MSShapeGroup" points="49.6710526 131.25 49.6710526 184.210526 0.328947368 187.5 "></polygon>
            <path d="M0.328947368,187.5 L49.6710526,184.210526 L49.6710526,236.842105 L0.328947368,187.5 L0.328947368,187.5 Z" id="Triangle-4-Copy-4" fill="#606060" sketch:type="MSShapeGroup"></path>
            <path d="M49.6710526,0.138774671 L49.6710526,92.2440378 L0.328947368,88.9545641 L49.6710526,0.138774671 Z" id="Triangle-4-Copy-2" fill="#D0D0D0" sketch:type="MSShapeGroup"></path>
            <path d="M49.6967516,92.2440378 L49.6967516,131.717722 L0.354646382,88.9545641 L49.6967516,92.2440378 Z" id="Triangle-4-Copy" fill="#C0C0C0" sketch:type="MSShapeGroup"></path>
        </g>
    </g>
</svg>