<?xml version="1.0" encoding="UTF-8" standalone="no"?>
<svg width="18px" height="18px" viewBox="0 0 18 18" version="1.1" xmlns="http://www.w3.org/2000/svg" xmlns:xlink="http://www.w3.org/1999/xlink" xmlns:sketch="http://www.bohemiancoding.com/sketch/ns">
    <!-- Generator: Sketch 3.3 (11970) - http://www.bohemiancoding.com/sketch -->
    <title>Imported Layers</title>
    <desc>Created with Sketch.</desc>
    <defs>
        <path id="path-1" d="M0,0 L40,0 L40,40 L0,40 L0,0 Z"></path>
    </defs>
    <g id="Page-1" stroke="none" stroke-width="1" fill="none" fill-rule="evenodd" sketch:type="MSPage">
        <g id="Imported-Layers" sketch:type="MSLayerGroup">
            <mask id="mask-2" sketch:name="Clip 2" fill="white">
                <use xlink:href="#path-1"></use>
            </mask>
            <g id="Clip-2"></g>
            <path d="M1.77862034,13.4750902 C2.12678795,13.6438404 2.47939396,13.7235687 2.84630147,13.7235687 C3.03419362,13.7235687 3.20827743,13.7142752 3.36805973,13.6951991 C3.52784203,13.6766121 3.68318594,13.6487317 3.82422834,13.6110686 C4.11075154,13.5406337 4.35979495,13.4472097 4.56692015,13.3298183 C4.7735522,13.212916 4.94319761,13.0862311 5.07930846,12.9502527 L5.07930846,6.23008261 C5.01371881,6.15475645 4.93382766,6.07551723 4.83963501,5.99089758 C4.74544235,5.91116923 4.62313985,5.8363322 4.4727275,5.76589734 C4.32231515,5.69546249 4.13886139,5.63970156 3.93222934,5.59274499 C3.72510413,5.55019059 3.48099228,5.52720144 3.19890748,5.52720144 C2.97304237,5.52720144 2.74273886,5.5550819 2.50306541,5.61133196 C2.2584604,5.66758202 2.02322535,5.75660385 1.78799029,5.88769095 C1.55324839,6.01926717 1.32738328,6.18312604 1.11581968,6.3895393 C0.904256075,6.59546343 0.716363923,6.84394195 0.551650068,7.13888791 C0.386936213,7.434323 0.25526376,7.78111684 0.156632709,8.17486726 C0.0580016583,8.57301985 0.00622035659,9.02791163 0.0017819593,9.53367303 C-0.0125195431,10.2556303 0.0580016583,10.8787831 0.217783961,11.4036206 C0.377566263,11.9333495 0.589129868,12.3691651 0.857406326,12.7110677 C1.12518963,13.0534593 1.43094589,13.30634 1.77862034,13.4750902 L1.77862034,13.4750902 Z M5.07930846,0.804642147 C2.97846708,1.74719748 1.30371183,3.44986231 0.417018684,5.55606017 C0.721788631,5.33203819 1.05269581,5.14274452 1.41220599,4.98817914 C2.0325953,4.72111364 2.69588912,4.58513524 3.41047108,4.58513524 C3.72066573,4.58513524 4.02642199,4.60861352 4.31787675,4.64578747 C4.6093315,4.68834187 4.86330646,4.74459193 5.07930846,4.81453765 L5.07930846,0.804642147 Z M16.0298209,4.88986382 C16.2542065,4.80573329 16.5530586,4.76366803 16.925884,4.7631789 C15.3877328,1.92866506 12.3533485,2.17391304e-05 8.86230242,2.17391304e-05 C8.1427889,2.17391304e-05 7.4430016,0.0817066073 6.7718173,0.236271987 L6.7718173,13.9720472 L7.96180093,13.9720472 L7.96180093,14.6279718 C7.85823832,14.6842219 7.73593582,14.7311785 7.58552347,14.778135 C7.43511111,14.8246025 7.27532881,14.8622656 7.1056834,14.9043308 C6.93653115,14.9371026 6.7673789,14.9605809 6.59822665,14.9840592 C6.42414284,14.998244 6.25942899,15.0075375 6.10901663,15.0075375 C6.00101563,15.0075375 5.88808308,14.998244 5.77515053,14.9840592 C5.66221797,14.9654722 5.55914852,14.9278091 5.46495587,14.8764504 C5.37076322,14.815309 5.29087207,14.721885 5.22972081,14.6044936 C5.16856956,14.4826999 5.14045971,14.3090585 5.14045971,14.0938408 L5.14045971,13.8732428 C5.05119861,13.9764494 4.91952616,14.0889495 4.75037391,14.2107431 C4.58122165,14.3325367 4.36965805,14.4499282 4.11568309,14.5531348 C3.86170814,14.6558523 3.57469178,14.740472 3.25019562,14.8202003 C2.92126107,14.8906352 2.56421666,14.9278091 2.1691993,14.9278091 C2.10656859,14.9278091 2.04393787,14.9263417 1.98180031,14.9234069 C3.65704871,16.8090067 6.11838658,18.0000406 8.86230242,18.0000406 C8.94564566,18.0000406 9.0289889,17.9990623 9.11183898,17.9966167 C8.87660392,17.6644968 8.76120559,17.2521594 8.76120559,16.7649849 C8.76120559,16.4930281 8.80805534,16.2352561 8.90668639,15.9916689 C9.00087905,15.7431904 9.12318155,15.5181902 9.2735939,15.3166682 C9.41956786,15.1058528 9.57935016,14.9234069 9.75294081,14.7683524 C9.92258622,14.6093849 10.0917385,14.4778086 10.2515208,14.3750911 C9.98817587,14.281178 9.78598221,14.1735692 9.64987136,14.0512865 C9.51326736,13.9294928 9.41956786,13.7984058 9.362855,13.6624274 C9.3066353,13.5313403 9.27852546,13.3909597 9.2735939,13.25009 C9.26422395,13.1097094 9.26422395,12.9781332 9.26422395,12.8519374 C9.26422395,12.7487307 9.28789541,12.6127523 9.33474515,12.4440022 C9.3815949,12.275252 9.44767771,12.0928061 9.54137721,11.8956864 C9.63113146,11.7034579 9.74357086,11.5068273 9.88461326,11.3101966 C10.0212173,11.1130769 10.1809996,10.930631 10.3595218,10.7711743 C9.91765467,10.508511 9.56504866,10.157315 9.3110737,9.716608 C9.05709875,9.27590102 8.93035785,8.73247654 8.93035785,8.0902476 C8.93035785,7.49057306 9.0432904,6.96573556 9.27852546,6.52062639 C9.50882896,6.07551723 9.81409206,5.70524511 10.1953011,5.41470132 C10.5710854,5.12415754 11.0035825,4.90355948 11.4834226,4.75388541 C11.9627695,4.60861352 12.4519795,4.52888518 12.9505595,4.51470038 C13.4486463,4.50540689 13.9141848,4.55676564 14.356052,4.66926576 C14.7934807,4.78176588 15.1786349,4.96470085 15.5129942,5.21758155 C15.6303651,5.08649446 15.8044489,4.97399434 16.0298209,4.88986382 L16.0298209,4.88986382 Z M17.9999761,9.00003116 C17.9999761,7.9811714 17.827865,7.00242038 17.5112593,6.0892129 L16.2744259,6.0892129 C16.3967284,6.31421313 16.4904279,6.56269166 16.5565107,6.84394195 C16.6225935,7.12519224 16.6600733,7.434323 16.6600733,7.76693205 C16.6600733,8.34801961 16.5520723,8.85916145 16.3355772,9.30867279 C16.119082,9.75867326 15.8325588,10.1338367 15.4750212,10.4385653 C15.1130453,10.7428047 14.6948496,10.9726963 14.2243795,11.132153 C13.749471,11.2911205 13.2558226,11.3708489 12.7389959,11.3708489 C12.0431538,11.3708489 11.4222713,11.2632401 10.8768416,11.042642 C10.8393618,11.1365551 10.8156904,11.2397618 10.801882,11.3473706 C10.7875805,11.4598707 10.7782106,11.5630773 10.7782106,11.666284 C10.773279,11.7694906 10.773279,11.8629146 10.7782106,11.9519364 C10.7782106,12.0458496 10.782649,12.1206866 10.782649,12.1769367 C10.782649,12.49585 10.8625401,12.7394373 11.0321855,12.9174809 C11.1964062,13.0955246 11.487861,13.1987312 11.9114814,13.231503 C12.1743331,13.2593835 12.4894593,13.2735682 12.8608052,13.2735682 L14.1819682,13.2735682 C14.7273979,13.2735682 15.197868,13.3205248 15.5835154,13.4046553 C15.9686696,13.489275 16.2931658,13.6017751 16.5471408,13.7421557 L16.6077989,13.776884 C17.4900536,12.3926434 17.9999761,10.755033 17.9999761,9.00003116 L17.9999761,9.00003116 Z M11.9016183,10.2179672 C12.2029361,10.3588369 12.5693505,10.4287827 12.9924777,10.4287827 C13.3544536,10.4287827 13.6651414,10.3823152 13.9191164,10.2791086 C14.1725982,10.1807933 14.3747919,10.0306301 14.5301358,9.82910812 C14.6854797,9.62758617 14.7979191,9.37470547 14.8684403,9.07437907 C14.9389615,8.7745418 14.9769344,8.41845447 14.9769344,8.01100839 C14.9769344,7.13888791 14.7885491,6.4922568 14.4127648,6.07062592 C14.0364874,5.64899505 13.4723177,5.43817961 12.7197628,5.43817961 C12.4238697,5.43817961 12.1462233,5.48024487 11.8922483,5.5550819 C11.6387665,5.62991894 11.4129014,5.75660385 11.2250092,5.93464752 C11.0321855,6.11269118 10.8817732,6.35187622 10.773279,6.64682218 C10.665278,6.94225727 10.6134967,7.3125294 10.6134967,7.75763856 C10.6134967,8.12301938 10.6559081,8.46541104 10.7451692,8.7887266 C10.8299919,9.11693346 10.9710343,9.39769462 11.163858,9.64177097 C11.3517501,9.88535818 11.6007935,10.0775866 11.9016183,10.2179672 L11.9016183,10.2179672 Z M11.0469802,17.7412903 C12.850449,17.3054746 14.4433404,16.3423758 15.6481187,15.0275918 C15.4824186,14.931233 15.277266,14.8554177 15.0331541,14.8011242 C14.6948496,14.7169937 14.2524894,14.6793306 13.7075528,14.6793306 L12.5974603,14.6656349 C12.2497859,14.6656349 11.9395912,14.6558523 11.6668764,14.6372653 C11.3941615,14.6186784 11.1451181,14.5859066 10.9286229,14.5482435 C10.8581017,14.6328631 10.7925121,14.721885 10.7313608,14.8294938 C10.6702096,14.9278091 10.6134967,15.0452005 10.566647,15.1811789 C10.5148657,15.3073747 10.4724543,15.4575379 10.4443445,15.6262881 C10.4162346,15.790147 10.4019331,15.9823754 10.4019331,16.2024844 C10.4019331,16.5962348 10.4773859,16.9337351 10.6277982,17.2149854 C10.7377719,17.4174856 10.8783211,17.5921054 11.0469802,17.7412903 L11.0469802,17.7412903 Z" id="Fill-1" fill="#D29BCC" sketch:type="MSShapeGroup" mask="url(#mask-2)"></path>
        </g>
    </g>
</svg>