<?xml version="1.0" encoding="UTF-8" standalone="no"?>
<svg width="117px" height="105px" viewBox="0 0 117 105" version="1.1" xmlns="http://www.w3.org/2000/svg" xmlns:xlink="http://www.w3.org/1999/xlink" xmlns:sketch="http://www.bohemiancoding.com/sketch/ns">
    <!-- Generator: Sketch 3.3 (11970) - http://www.bohemiancoding.com/sketch -->
    <title>Triangle 1 + Rectangle 18 Copy 2 + Shape</title>
    <desc>Created with Sketch.</desc>
    <defs></defs>
    <g id="Page-1" stroke="none" stroke-width="1" fill="none" fill-rule="evenodd" sketch:type="MSPage">
        <g id="Triangle-1-+-Rectangle-18-Copy-2-+-Shape" sketch:type="MSLayerGroup" transform="translate(-17.000000, -27.000000)">
            <g id="Triangle-1-+-Rectangle-18-Copy-2" sketch:type="MSShapeGroup">
                <g>
                    <g>
                        <g>
                            <g transform="translate(67.369833, 73.103445) scale(-1, 1) rotate(-29.000000) translate(-67.369833, -73.103445) translate(23.869833, 14.103445)">
                                <polygon id="Triangle-1" fill="#73B5CA" transform="translate(43.625380, 96.015190) rotate(-180.000000) translate(-43.625380, -96.015190) " points="58.6253803 74.5151904 86.1253803 117.51519 1.12538029 107.51519 "></polygon>
                                <path d="M1,3.33955086e-13 L86,30 L86,85 L1,75 L1,3.33955086e-13 Z" id="Rectangle-18" fill="#8AC6D9"></path>
                            </g>
                        </g>
                    </g>
                </g>
            </g>
            <path d="M74.6759701,50.1501456 L74.6759701,44.9497307 L88.298705,52.8150495 L88.974675,51.6441687 L74,43 L59.0250983,51.6455283 L59.7010684,52.8164091 L73.3238033,44.9510903 L73.3238033,50.1515052 L58.687,58.6023777 L58.687,76.2843323 L74,85.125876 L89.313,76.2843323 L89.313,58.6023777 L74.6759701,50.1501456 L74.6759701,50.1501456 Z M72.641035,67.4169552 L60.0391668,74.6359895 L60.0391668,60.1992806 L72.641035,67.4169552 L72.641035,67.4169552 Z M73.3238033,68.5851168 L73.3238033,83.1747857 L60.6380903,75.851512 L73.3238033,68.5851168 L73.3238033,68.5851168 Z M74.6759701,68.5837571 L87.3603234,75.8501523 L74.6759701,83.1747857 L74.6759701,68.5837571 L74.6759701,68.5837571 Z M75.3603247,67.4169552 L87.9608332,60.1992806 L87.9608332,74.6346299 L75.3603247,67.4169552 L75.3603247,67.4169552 Z M74.6759701,60.7576414 L74.6759701,51.7119243 L87.3197607,59.0107244 L74.001133,66.639465 L60.682732,59.0107244 L73.3238033,51.7119243 L73.3238033,60.7576414 L74.6759701,60.7576414 L74.6759701,60.7576414 Z" id="Shape" fill="#FFFFFF" sketch:type="MSShapeGroup"></path>
        </g>
    </g>
</svg>