<?xml version="1.0" encoding="UTF-8" standalone="no"?>
<svg width="117px" height="108px" viewBox="0 0 117 108" version="1.1" xmlns="http://www.w3.org/2000/svg" xmlns:xlink="http://www.w3.org/1999/xlink" xmlns:sketch="http://www.bohemiancoding.com/sketch/ns">
    <!-- Generator: Sketch 3.3 (11970) - http://www.bohemiancoding.com/sketch -->
    <title>Triangle 1 + Rectangle 18 + Shape Copy</title>
    <desc>Created with Sketch.</desc>
    <defs></defs>
    <g id="Page-1" stroke="none" stroke-width="1" fill="none" fill-rule="evenodd" sketch:type="MSPage">
        <g id="Triangle-1-+-Rectangle-18-+-Shape-Copy" sketch:type="MSLayerGroup" transform="translate(12.000000, 0.000000)">
            <g id="Triangle-1-+-Rectangle-18" sketch:type="MSShapeGroup">
                <polygon id="Triangle-1" fill="#6EB2AC" transform="translate(47.500000, 86.500000) rotate(-180.000000) translate(-47.500000, -86.500000) " points="67.5 65 95 108 0 108 "></polygon>
                <path d="M0,0 L85,20 L95,65 L0,65 L0,0 Z" id="Rectangle-18" fill="#77BBB5"></path>
            </g>
            <path d="M61.3152877,28.6953619 C60.1569415,26.6857009 57.7048759,25.6236509 54.2277436,25.6236509 C53.1901165,25.6236509 52.0834074,25.7290185 50.9341325,25.9146331 C49.1540473,21.246358 46.4291423,18.3044375 43.3197501,18.3044375 C40.2089623,18.3044375 37.4812662,21.2449624 35.7018788,25.9125397 C34.5560929,25.7283207 33.4472903,25.6229531 32.4096632,25.6229531 C28.9311354,25.6229531 26.4797676,26.6850031 25.3172345,28.6946642 C23.763934,31.3867726 24.9439121,35.2141999 28.0937766,39.0855886 C24.9425165,42.9569773 23.763934,46.783009 25.3172345,49.4765131 C26.4797676,51.4854763 28.9304376,52.5489219 32.4096632,52.5489219 C33.4472903,52.5489219 34.5526039,52.4435543 35.7018788,52.2586375 C37.4812662,56.925517 40.2096601,59.8674375 43.3197501,59.8674375 C46.4298401,59.8674375 49.1547451,56.925517 50.9348303,52.2586375 C52.0834074,52.4435543 53.1880231,52.5489219 54.226348,52.5489219 C57.7090627,52.5489219 60.1604304,51.4854763 61.3194745,49.4765131 C62.872775,46.7871958 61.6914014,42.9569773 58.5464214,39.0855886 C61.689308,35.2148977 62.869286,31.3874704 61.3152877,28.6953619 L61.3152877,28.6953619 Z M54.2277436,27.2530115 C57.0461536,27.2530115 59.0648861,28.0540847 59.9022448,29.5096933 C61.0689647,31.5270302 60.0041235,34.602928 57.4418057,37.8190835 C56.1236634,36.394178 54.5487311,34.9846241 52.7588768,33.6350809 C52.4846418,31.4097999 52.0485174,29.3331502 51.4756245,27.4811917 C52.4337025,27.3423297 53.3603795,27.2530115 54.2277436,27.2530115 L54.2277436,27.2530115 Z M47.3941983,46.1452208 C46.0418639,46.9260578 44.6755735,47.6168788 43.3197501,48.2190793 C41.9632289,47.6175766 40.5976363,46.9260578 39.2446041,46.1452208 C37.8852918,45.3601969 36.6159954,44.5179536 35.4206658,43.6443093 C35.2608698,42.1761402 35.166667,40.6521473 35.166667,39.084193 C35.166667,37.5176343 35.2629632,35.995037 35.4206658,34.5289613 C36.613902,33.655317 37.8887807,32.8109803 39.2446041,32.0266542 C40.5976363,31.2458172 41.9632289,30.5549962 43.3197501,29.9514001 C44.6755735,30.5549962 46.0418639,31.2451194 47.3941983,32.0266542 C48.7500217,32.8109803 50.0221092,33.6546192 51.2174389,34.5268679 C51.376537,35.995037 51.4686465,37.5176343 51.4686465,39.084193 C51.4686465,40.6500539 51.3744436,42.1740468 51.2174389,43.6429137 C50.0221092,44.5179536 48.7535107,45.3601969 47.3941983,46.1452208 L47.3941983,46.1452208 Z M50.9152919,45.8535408 C50.6445459,47.477319 50.2768058,49.0006142 49.8392859,50.3864429 C48.3976332,50.0752246 46.8924808,49.6356112 45.3566253,49.0543447 C46.3119121,48.591704 47.2630121,48.1032447 48.2092275,47.5568681 C49.1540473,47.0097937 50.0493234,46.4362029 50.9152919,45.8535408 L50.9152919,45.8535408 Z M41.2786881,49.0543447 C39.744926,49.6356112 38.241867,50.0752246 36.7995166,50.3864429 C36.3578098,48.9992186 35.9942565,47.477319 35.7235105,45.8535408 C36.5894791,46.4348073 37.4833595,47.0090959 38.4288772,47.5540769 C39.3750926,48.1011513 40.3268903,48.591704 41.2786881,49.0543447 L41.2786881,49.0543447 Z M33.6608168,42.2787167 C32.3908227,41.2313204 31.2568993,40.160199 30.2764918,39.0869842 C31.2575971,38.0123738 32.3901249,36.9405546 33.6608168,35.8952517 C33.5868501,36.93567 33.5366086,37.9949288 33.5366086,39.0848908 C33.5366086,40.1748528 33.5868501,41.2376006 33.6608168,42.2787167 L33.6608168,42.2787167 Z M35.7235105,32.3204276 C35.9942565,30.6931604 36.3578098,29.1726564 36.7995166,27.7840365 C38.241867,28.0966504 39.744926,28.5369616 41.2786881,29.1168325 C40.3268903,29.580171 39.3743948,30.0700259 38.429575,30.6143091 C37.4840573,31.1613835 36.5894791,31.7356721 35.7235105,32.3204276 L35.7235105,32.3204276 Z M45.3566253,29.1168325 C46.8924808,28.5362638 48.3969354,28.0966504 49.8392859,27.7840365 C50.2782014,29.1712608 50.6445459,30.6931604 50.9152919,32.3204276 C50.0493234,31.7370677 49.1547451,31.1634769 48.2092275,30.6171003 C47.2637099,30.0700259 46.3119121,29.580171 45.3566253,29.1168325 L45.3566253,29.1168325 Z M52.9779857,35.8945539 C54.2479798,36.9398568 55.3812053,38.0130716 56.3623107,39.0855886 C55.3805075,40.160199 54.2486776,41.2313204 52.9779857,42.2773211 C53.0505568,41.2348094 53.0994027,40.174155 53.0994027,39.084193 C53.0994027,37.994231 53.0505568,36.9363678 52.9779857,35.8945539 L52.9779857,35.8945539 Z M43.3197501,19.9344959 C45.6538877,19.9344959 47.7891525,22.3963307 49.2915137,26.237714 C47.3704731,26.6689537 45.3601143,27.327676 43.3197501,28.1901555 C41.2793859,27.3283738 39.2676315,26.6675581 37.3472887,26.2363184 C38.8468587,22.3963307 40.9849148,19.9344959 43.3197501,19.9344959 L43.3197501,19.9344959 Z M26.7337664,29.5103911 C27.5746142,28.0547825 29.5891598,27.2537093 32.4089654,27.2537093 C33.2756318,27.2537093 34.2051,27.3423297 35.1603868,27.4825873 C34.5819114,29.3345458 34.1513695,31.4111955 33.8771345,33.6364765 C32.0872801,34.9853219 30.5102544,36.3955736 29.1949034,37.8204791 C26.6290966,34.6036258 25.5677444,31.527728 26.7337664,29.5103911 L26.7337664,29.5103911 Z M32.410361,50.9188635 C29.591951,50.9188635 27.5739164,50.1163947 26.7365576,48.6614839 C25.5691399,46.6434492 26.6339812,43.5682492 29.1969968,40.3534893 C30.5144412,41.7763014 32.0886757,43.1865531 33.8799257,44.5347008 C34.1534629,46.7592839 34.5888894,48.8366314 35.1624802,50.6864965 C34.2051,50.8295453 33.2791208,50.9188635 32.410361,50.9188635 L32.410361,50.9188635 Z M43.3197501,58.2380769 C40.9856126,58.2380769 38.8503477,55.7755443 37.3472887,51.9348588 C39.2676315,51.5036191 41.2786881,50.8448968 43.3197501,49.9831151 C45.3601143,50.844199 47.3704731,51.5050147 49.2915137,51.9348588 C47.7884547,55.7748465 45.6538877,58.2380769 43.3197501,58.2380769 L43.3197501,58.2380769 Z M59.905036,48.6614839 C59.0648861,50.1163947 57.0496426,50.9188635 54.2256502,50.9188635 C53.3631707,50.9188635 52.4337025,50.8295453 51.4784157,50.6892877 C52.0540998,48.8366314 52.487433,46.7627729 52.7609702,44.5395853 C54.5501267,43.1893443 56.1278502,41.7790926 57.4438991,40.3534893 C60.0104037,43.5682492 61.0703603,46.6434492 59.905036,48.6614839 L59.905036,48.6614839 Z M47.190441,39.0855886 C47.190441,41.2250402 45.4598996,42.9569773 43.3197501,42.9569773 C41.1796007,42.9569773 39.4483614,41.225738 39.4483614,39.0855886 C39.4483614,36.9454392 41.1796007,35.2148977 43.3197501,35.2148977 C45.4598996,35.2148977 47.190441,36.9475326 47.190441,39.0855886 L47.190441,39.0855886 Z" id="Shape-Copy" fill="#FFFFFF" sketch:type="MSShapeGroup"></path>
        </g>
    </g>
</svg>